<?xml version="1.0" encoding="utf-8"?>
<!-- Generator: Adobe Illustrator 19.0.0, SVG Export Plug-In . SVG Version: 6.00 Build 0)  -->
<svg version="1.1" id="Слой_1" xmlns="http://www.w3.org/2000/svg" xmlns:xlink="http://www.w3.org/1999/xlink" x="0px" y="0px"
	 viewBox="-197 -154.8 1603.6 1140.8" style="enable-background:new -197 -154.8 1603.6 1140.8;" xml:space="preserve">
<style type="text/css">
	.st0{fill:#BFA58A;}
	.st1{fill:#BFA48A;}
</style>
<path id="XMLID_6_" class="st0" d="M-63,35.7c-0.9-6.3-10.5-3.6-9.6,2.7c3.8,26.9-10.1,55.4-33.7,68.9c-12.4,7-26.8,9.8-40.9,8.6
	c-7.2-0.6-13.9-2.4-20.2-5.1c-0.1-3.7-0.2-7.5-0.3-11.2c11.2,4.1,22.8,7.4,34.8,6.9c14-0.6,24.8-7.3,36.3-14.5
	c0.6-0.3,1.2-0.5,1.9-0.8c3.3-1.6,3.1-5.1,1.2-7.3c-1.3-2-3.8-3.2-6.5-1.5c-0.5,0.3-1.1,0.7-1.6,1c-9,3.8-19.1,3.8-28.4,1.2
	c-9.5-2.7-20.1-8.5-18.6-20c1.2-9.4,11.2-14.9,20-11.8c4.3,1.5,9.3,5,11.3,9.2c1,2.2,1,4.3,0.1,6.6v0.1c-0.4-0.1-0.8-0.2-1.2-0.1
	c-2.7,0.2-5.3,0.6-7.9,1.4c-0.6,0.2-1.2,0.5-1.6,0.9c-2.5,1.5-4,5.1-1.4,7.9c4.3,4.4,9.3,4.4,13.5,2.1c0.1,0,0.1,0,0.2,0
	c1,0,1.9-0.2,2.6-0.7c2.1-0.6,4.1-1.6,5.9-2.8c2.1-1,4.1-2.3,6-3.9c5.6-4.7,10.7-11.4,11.1-18.8c0.5-7.8-1.1-15.9-4.1-23.2
	c-2.6-6.4-6.2-13.9-13.3-16.1c-6.2-1.9-8.8,7.8-2.7,9.6c3.8,1.2,6.4,9,7.6,12.3c1.7,5,2.7,10.3,2.6,15.6c-0.2,5-2.7,9-6.4,11.9v-0.1
	c-0.1-12.6-14.4-22.5-26-23.2c-12-0.7-23.6,8.1-25.7,20c-2.6,13.9,5.8,24.7,18,29.9c4.4,1.9,9,3.2,13.7,4c-2.6,0.6-5.3,1-8.2,1
	c-13.1,0.2-25.7-4.6-37.7-9.4c-4.6-1.8-7.2,3.5-5.4,7.1c0,3.8,0.1,7.5,0.1,11.3c-3.6-2.2-7.2-4.7-10.7-7.4c-5-3.8-12.1,3.2-7.1,7.1
	c5.9,4.5,11.8,8.7,18.1,12.1c0,0.1,0,0.3,0,0.4c0.3,7.4,0.3,15.2,1.5,22.5c2.3,13.4,17.8,18.4,29.7,19.1c5.6,0.3,6.3-7.2,2.2-9.4
	c-0.5-4.1,1.1-8.4,5.2-10.2c5.6-2.6,11.8,1.3,13.4,6.8c1.5,5.4,2.4,14.1-3.3,17.1c-6.3,3.3-14.4,1.4-21.2,2c-5,0.5-6.8,6.4-2.5,9.3
	c3.6,2.4-1,6.2-3.5,6.4c-4.7,0.5-8.5-3.3-10.9-6.9c-3.6-5.3-12.3-0.3-8.6,5c6,8.8,16.8,15.7,27.3,9.7c5.2-3,7.4-8.6,6.6-13.9
	c8.7-0.1,17.7-0.3,23.6-7.7c6-7.6,4.5-22.8-0.8-30.4c-5.4-7.6-16.6-10.6-25-6.1c-6.3,3.3-10,10-10.3,16.9c-2.7-0.8-5.4-1.9-7.8-3.5
	c-5-3.3-4.5-8.9-4.8-14.4c-0.2-2.8-0.3-5.5-0.5-8.3c2.2,0.8,4.5,1.5,6.9,2.1c12.5,3,25.6,3.1,38.1,0.2c24.9-5.8,44.7-23.9,54.2-47.4
	C-62.5,63.6-61,49.6-63,35.7z"/>
<path id="XMLID_8_" class="st0" d="M-63,965.5c-0.9,6.3-10.5,3.6-9.6-2.7c3.8-26.9-10.1-55.4-33.7-68.9c-12.4-7-26.8-9.8-40.9-8.6
	c-7.2,0.6-13.9,2.4-20.2,5.1c-0.1,3.7-0.2,7.5-0.3,11.2c11.2-4.1,22.8-7.4,34.8-6.9c14,0.6,24.8,7.3,36.3,14.5
	c0.6,0.3,1.2,0.5,1.9,0.8c3.3,1.6,3.1,5.1,1.2,7.3c-1.3,2-3.8,3.2-6.5,1.5c-0.5-0.3-1.1-0.7-1.6-1c-9-3.8-19.1-3.8-28.4-1.2
	c-9.5,2.7-20.1,8.5-18.6,20c1.2,9.4,11.2,14.9,20,11.8c4.3-1.5,9.3-5,11.3-9.2c1-2.2,1-4.3,0.1-6.6v-0.1c-0.4,0.1-0.8,0.2-1.2,0.1
	c-2.7-0.2-5.3-0.6-7.9-1.4c-0.6-0.2-1.2-0.5-1.6-0.9c-2.5-1.5-4-5.1-1.4-7.9c4.3-4.6,9.3-4.7,13.5-2.3c0.1,0,0.1,0,0.2,0
	c1,0,1.9,0.2,2.6,0.7c2.1,0.6,4.1,1.6,5.9,2.8c2.1,1,4.1,2.3,6,3.9c5.6,4.7,10.7,11.4,11.1,18.8c0.5,7.8-1.1,15.9-4.1,23.2
	c-2.6,6.4-6.2,13.9-13.3,16.1c-6.2,1.9-8.8-7.8-2.7-9.6c3.8-1.2,6.4-9,7.6-12.3c1.7-5,2.7-10.3,2.6-15.6c-0.2-5-2.7-9-6.4-11.9v0.1
	c-0.1,12.6-14.4,22.5-26,23.2c-12,0.7-23.6-8.1-25.7-20c-2.5-13.7,6-24.6,18.1-29.7c4.4-1.9,9-3.2,13.7-4c-2.6-0.6-5.3-1-8.2-1
	c-13.1-0.2-25.7,4.6-37.7,9.4c-4.6,1.8-7.2-3.5-5.4-7.1c0-3.8,0.1-7.5,0.1-11.3c-3.6,2.2-7.2,4.7-10.7,7.4c-5,3.9-12.2-3.1-7.1-7.1
	c5.9-4.5,11.8-8.7,18.1-12.1c0-0.1,0-0.3,0-0.4c0.3-7.4,0.3-15.2,1.5-22.5c2.3-13.4,17.8-18.4,29.7-19.1c5.6-0.3,6.3,7.2,2.2,9.4
	c-0.5,4.1,1.1,8.4,5.2,10.2c5.6,2.6,11.8-1.3,13.4-6.8c1.5-5.4,2.4-14.1-3.3-17.1c-6.3-3.3-14.4-1.4-21.2-2c-5-0.5-6.8-6.4-2.5-9.3
	c3.6-2.4-1-6.2-3.5-6.4c-4.7-0.5-8.5,3.3-10.9,6.9c-3.6,5.3-12.3,0.3-8.6-5c6-8.8,16.8-15.7,27.3-9.7c5.2,3,7.4,8.6,6.6,13.9
	c8.7,0.1,17.7,0.3,23.6,7.7c6,7.6,4.5,22.8-0.8,30.4c-5.4,7.6-16.6,10.6-25,6.1c-6.3-3.3-10-10-10.3-16.9c-2.7,0.8-5.4,1.9-7.8,3.5
	c-5,3.3-4.5,8.9-4.8,14.4c-0.2,2.8-0.3,5.5-0.5,8.3c2.2-0.8,4.5-1.5,6.9-2.1c12.5-3,25.6-3.1,38.1-0.2c24.9,5.8,44.7,23.9,54.2,47.4
	C-62.5,937.6-61,951.6-63,965.5z"/>
<rect id="XMLID_2_" x="-197" y="101.9" class="st0" width="6.8" height="797.6"/>
<rect id="XMLID_7_" x="-176" y="176.6" class="st0" width="10.7" height="648.1"/>
<rect id="XMLID_14_" x="-109.9" y="15.3" class="st0" width="1429.9" height="6.8"/>
<rect id="XMLID_13_" x="-67.8" y="32.3" class="st0" width="1344.6" height="10.7"/>
<rect id="XMLID_22_" x="-109.9" y="979.1" class="st0" width="1429.9" height="6.8"/>
<rect id="XMLID_15_" x="-66.8" y="958.3" class="st0" width="1344.6" height="10.7"/>
<path id="XMLID_12_" class="st0" d="M1272.5,35.7c0.9-6.3,10.5-3.6,9.6,2.7c-3.8,26.9,10.1,55.4,33.7,68.9c12.4,7,26.8,9.8,40.9,8.6
	c7.2-0.6,13.9-2.4,20.2-5.1c0.1-3.7,0.2-7.5,0.3-11.2c-11.2,4.1-22.8,7.4-34.8,6.9c-14-0.6-24.8-7.3-36.3-14.5
	c-0.6-0.3-1.2-0.5-1.9-0.8c-3.3-1.6-3.1-5.1-1.2-7.3c1.3-2,3.8-3.2,6.5-1.5c0.5,0.3,1.1,0.7,1.6,1c9,3.8,19.1,3.8,28.4,1.2
	c9.5-2.7,20.1-8.5,18.6-20c-1.2-9.4-11.2-14.9-20-11.8c-4.3,1.5-9.3,5-11.3,9.2c-1,2.2-1,4.3-0.1,6.6v0.1c0.4-0.1,0.8-0.2,1.2-0.1
	c2.7,0.2,5.3,0.6,7.9,1.4c0.6,0.2,1.2,0.5,1.6,0.9c2.5,1.5,4,5.1,1.4,7.9c-4.3,4.6-9.3,4.7-13.5,2.3c-0.1,0-0.1,0-0.2,0
	c-1,0-1.9-0.2-2.6-0.7c-2.1-0.6-4.1-1.6-5.9-2.8c-2.1-1-4.1-2.3-6-3.9c-5.6-4.7-10.7-11.4-11.1-18.8c-0.5-7.8,1.1-15.9,4.1-23.2
	c2.6-6.4,6.2-13.9,13.3-16.1c6.2-1.9,8.8,7.8,2.7,9.6c-3.8,1.2-6.4,9-7.6,12.3c-1.7,5-2.7,10.3-2.6,15.6c0.2,5,2.7,9,6.4,11.9v-0.1
	c0.1-12.6,14.4-22.5,26-23.2c12-0.7,23.6,8.1,25.7,20c2.5,13.7-6,24.6-18.1,29.7c-4.4,1.9-9,3.2-13.7,4c2.6,0.6,5.3,1,8.2,1
	c13.1,0.2,25.7-4.6,37.7-9.4c4.6-1.8,7.2,3.5,5.4,7.1c0,3.8-0.1,7.5-0.1,11.3c3.6-2.2,7.2-4.7,10.7-7.4c5-3.9,12.2,3.1,7.1,7.1
	c-5.9,4.5-11.8,8.7-18.1,12.1c0,0.1,0,0.3,0,0.4c-0.3,7.4-0.3,15.2-1.5,22.5c-2.3,13.4-17.8,18.4-29.7,19.1
	c-5.6,0.3-6.3-7.2-2.2-9.4c0.5-4.1-1.1-8.4-5.2-10.2c-5.6-2.6-11.8,1.3-13.4,6.8c-1.5,5.4-2.4,14.1,3.3,17.1
	c6.3,3.3,14.4,1.4,21.2,2c5,0.5,6.8,6.4,2.5,9.3c-3.6,2.4,1,6.2,3.5,6.4c4.7,0.5,8.5-3.3,10.9-6.9c3.6-5.3,12.3-0.3,8.6,5
	c-6,8.8-16.8,15.7-27.3,9.7c-5.2-3-7.4-8.6-6.6-13.9c-8.7-0.1-17.7-0.3-23.6-7.7c-6-7.6-4.5-22.8,0.8-30.4c5.4-7.6,16.6-10.6,25-6.1
	c6.3,3.3,10,10,10.3,16.9c2.7-0.8,5.4-1.9,7.8-3.5c5-3.3,4.5-8.9,4.8-14.4c0.2-2.8,0.3-5.5,0.5-8.3c-2.2,0.8-4.5,1.5-6.9,2.1
	c-12.5,3-25.6,3.1-38.1,0.2c-24.9-5.8-44.7-23.9-54.2-47.4C1272.1,63.6,1270.6,49.6,1272.5,35.7z"/>
<path id="XMLID_11_" class="st0" d="M1272.5,965.5c0.9,6.3,10.5,3.6,9.6-2.7c-3.8-26.9,10.1-55.4,33.7-68.9
	c12.4-7,26.8-9.8,40.9-8.6c7.2,0.6,13.9,2.4,20.2,5.1c0.1,3.7,0.2,7.5,0.3,11.2c-11.2-4.1-22.8-7.4-34.8-6.9
	c-14,0.6-24.8,7.3-36.3,14.5c-0.6,0.3-1.2,0.5-1.9,0.8c-3.3,1.6-3.1,5.1-1.2,7.3c1.3,2,3.8,3.2,6.5,1.5c0.5-0.3,1.1-0.7,1.6-1
	c9-3.8,19.1-3.8,28.4-1.2c9.5,2.7,20.1,8.5,18.6,20c-1.2,9.4-11.2,14.9-20,11.8c-4.3-1.5-9.3-5-11.3-9.2c-1-2.2-1-4.3-0.1-6.6v-0.1
	c0.4,0.1,0.8,0.2,1.2,0.1c2.7-0.2,5.3-0.6,7.9-1.4c0.6-0.2,1.2-0.5,1.6-0.9c2.5-1.5,4-5.1,1.4-7.9c-4.3-4.6-9.3-4.7-13.5-2.3
	c-0.1,0-0.1,0-0.2,0c-1,0-1.9,0.2-2.6,0.7c-2.1,0.6-4.1,1.6-5.9,2.8c-2.1,1-4.1,2.3-6,3.9c-5.6,4.7-10.7,11.4-11.1,18.8
	c-0.5,7.8,1.1,15.9,4.1,23.2c2.6,6.4,6.2,13.9,13.3,16.1c6.2,1.9,8.8-7.8,2.7-9.6c-3.8-1.2-6.4-9-7.6-12.3c-1.7-5-2.7-10.3-2.6-15.6
	c0.2-5,2.7-9,6.4-11.9v0.1c0.1,12.6,14.4,22.5,26,23.2c12,0.7,23.6-8.1,25.7-20c2.5-13.7-6-24.6-18.1-29.7c-4.4-1.9-9-3.2-13.7-4
	c2.6-0.6,5.3-1,8.2-1c13.1-0.2,25.7,4.6,37.7,9.4c4.6,1.8,7.2-3.5,5.4-7.1c0-3.8-0.1-7.5-0.1-11.3c3.6,2.2,7.2,4.7,10.7,7.4
	c5,3.9,12.2-3.1,7.1-7.1c-5.9-4.5-11.8-8.7-18.1-12.1c0-0.1,0-0.3,0-0.4c-0.3-7.4-0.3-15.2-1.5-22.5c-2.3-13.4-17.8-18.4-29.7-19.1
	c-5.6-0.3-6.3,7.2-2.2,9.4c0.5,4.1-1.1,8.4-5.2,10.2c-5.6,2.6-11.8-1.3-13.4-6.8c-1.5-5.4-2.4-14.1,3.3-17.1
	c6.3-3.3,14.4-1.4,21.2-2c5-0.5,6.8-6.4,2.5-9.3c-3.6-2.4,1-6.2,3.5-6.4c4.7-0.5,8.5,3.3,10.9,6.9c3.6,5.3,12.3,0.3,8.6-5
	c-6-8.8-16.8-15.7-27.3-9.7c-5.2,3-7.4,8.6-6.6,13.9c-8.7,0.1-17.7,0.3-23.6,7.7c-6,7.6-4.5,22.8,0.8,30.4c5.4,7.6,16.6,10.6,25,6.1
	c6.3-3.3,10-10,10.3-16.9c2.7,0.8,5.4,1.9,7.8,3.5c5,3.3,4.5,8.9,4.8,14.4c0.2,2.8,0.3,5.5,0.5,8.3c-2.2-0.8-4.5-1.5-6.9-2.1
	c-12.5-3-25.6-3.1-38.1-0.2c-24.9,5.8-44.7,23.9-54.2,47.4C1272.1,937.6,1270.6,951.6,1272.5,965.5z"/>
<rect id="XMLID_10_" x="1399.8" y="101.9" class="st0" width="6.8" height="797.6"/>
<rect id="XMLID_9_" x="1374.8" y="176.6" class="st0" width="10.7" height="648.1"/>
<path class="st1" d="M372.4,17.6c0.5-1.4,1-2.9,1.5-4.3c0,0.1,1.3-2.9,1.5-3.2c0.8-1.6,1.6-3.2,2.4-4.8c1.5-2.9,3.2-5.8,4.9-8.6
	c2.9-4.8,5.9-9.4,9.1-14c1.5-2.1,2.9-4.4,4.6-6.3c-0.7,0.9-2.1,2.7-0.3,0.4c1.2-1.4,2.3-2.9,3.5-4.3c7.1-8.5,14.8-16.4,22.9-23.8
	c4.1-3.7,8.3-7.2,12.6-10.7c0.2-0.1,0.4-0.3,0.5-0.5c0.7-0.5,1.4-0.9,2-1.4c2.6-1.9,5.2-3.8,7.9-5.6c9.2-6.2,18.8-11.9,28.6-16.9
	c4.5-2.3,9.2-4.5,13.8-6.6c0.2-0.1,0.6-0.3,1.1-0.5c1-0.5,2.1-0.9,3.2-1.3c3-1.2,6.1-2.4,9.1-3.5c10.5-3.8,21.3-7,32.2-9.6
	c5-1.2,10.1-2.2,15.1-3.2c2.8-0.5,5.5-1,8.3-1.4c1.3-0.2,2.8-0.6,4.2-0.6c-0.2,0-0.4,0-0.6,0c0.6,0,1.2-0.1,1.5-0.1
	c22.1-2.6,44.5-2.7,66.6-0.2c1,0.1,2.2,0.1,3.3,0.3c0.4,0.1,0.8,0.2,1.1,0.2c2.8,0.4,5.5,0.9,8.3,1.4c5.5,1,11,2.2,16.4,3.5
	c11.6,2.8,23,6.4,34.2,10.5c2.8,1,5.6,2.1,8.3,3.2c0.5,0.2,0.9,0.4,1.4,0.6c0.9,0.4,1.3,0.5,1.4,0.6c0.3,0.1,0.6,0.3,0.7,0.3
	c5.9,2.6,11.7,5.3,17.4,8.3c10.6,5.4,20.9,11.4,30.8,17.8c4.6,3,9.1,6,13.5,9.2c2.4,1.7,4.8,3.5,7.2,5.3c0.1,0.1,0.5,0.3,0.8,0.6
	c1.6,1.1,3.1,2.4,4.6,3.6c9.1,7.3,17.9,15.1,26.3,23.3c9.5,9.2,18.6,18.9,27.2,29c2.3,2.7,4.5,5.4,6.7,8.1c0.9,1.2,1.9,2.4,2.8,3.5
	c0.3,0.3,0.5,0.7,0.8,1c0.1,0.1,0.2,0.2,0.3,0.3h49.1C849.3-45.9,790.3-99,720.2-128.8c-46.5-19.8-96.7-29.3-147.3-25.2
	c-48.6,3.9-96.5,18.4-138,44.1c-22.9,14.1-44.1,31.6-61.6,52.1c-18.6,21.7-36.1,47.1-41.8,75.4H372.4z"/>
</svg>
