<?xml version="1.0" encoding="utf-8"?>
<!-- Generator: Adobe Illustrator 19.0.0, SVG Export Plug-In . SVG Version: 6.00 Build 0)  -->
<svg version="1.1" id="Layer_1" xmlns="http://www.w3.org/2000/svg" xmlns:xlink="http://www.w3.org/1999/xlink" x="0px" y="0px"
	 viewBox="-743 245 512 512" style="enable-background:new -743 245 512 512;" xml:space="preserve">
<style type="text/css">
	.st0{fill:#BFA48A;}
</style>
<path class="st0" d="M-385.2,614.5h-52.6v52.6h52.6V614.5z M-459.4,473.7h-52.6v52.6h52.6V473.7z M-385.2,544.1h-52.6v52.6h52.6
	V544.1z M-311.1,473.7h-52.6v52.6h52.6V473.7z M-459.4,544.1h-52.6v52.6h52.6V544.1z M-385.2,473.7h-52.6v52.6h52.6V473.7z
	 M-311.1,544.1h-52.6v52.6h52.6V544.1z M-607.6,614.5h-52.6v52.6h52.6V614.5z M-607.6,544.1h-52.6v52.6h52.6V544.1z M-324.7,288.3
	v23.1c9.1,8,14.8,19.7,14.8,32.8c0,24.2-19.6,43.8-43.8,43.8c-24.2,0-43.8-19.6-43.8-43.8c0-13.1,5.7-24.8,14.8-32.8v-23.1h-204.7
	v23.1c9.1,8,14.8,19.7,14.8,32.8c0,24.2-19.6,43.8-43.8,43.8c-24.2,0-43.8-19.6-43.8-43.8c0-13.1,5.8-24.8,14.8-32.8v-23.1H-743
	v466.2h512V288.3H-324.7z M-277.8,707.7h-418.5V416.5h418.5V707.7L-277.8,707.7z M-533.4,473.7H-586v52.6h52.6L-533.4,473.7
	L-533.4,473.7z M-533.4,614.5H-586v52.6h52.6L-533.4,614.5L-533.4,614.5z M-459.4,614.5h-52.6v52.6h52.6V614.5z M-533.4,544.1H-586
	v52.6h52.6L-533.4,544.1L-533.4,544.1z M-616.4,369.7c12,0,21.8-9.8,21.8-21.8v-78.6c0-12-9.8-21.8-21.8-21.8
	c-12,0-21.8,9.8-21.8,21.8v78.6C-638.2,359.9-628.4,369.7-616.4,369.7 M-353.7,369.7c12,0,21.8-9.8,21.8-21.8v-78.6
	c0-12-9.8-21.8-21.8-21.8c-12,0-21.8,9.8-21.8,21.8v78.6C-375.5,359.9-365.7,369.7-353.7,369.7"/>
</svg>
