<?xml version="1.0" encoding="utf-8"?>
<!-- Generator: Adobe Illustrator 19.0.0, SVG Export Plug-In . SVG Version: 6.00 Build 0)  -->
<svg version="1.1" id="Слой_1" xmlns:sketch="http://www.bohemiancoding.com/sketch/ns"
	 xmlns="http://www.w3.org/2000/svg" xmlns:xlink="http://www.w3.org/1999/xlink" x="0px" y="0px" viewBox="-991 493 16 16"
	 style="enable-background:new -991 493 16 16;" xml:space="preserve">
<style type="text/css">
	.st0{fill:#BFA48A;}
</style>
<title></title>
<g id="Icons_with_numbers">
	<g id="Group" transform="translate(-672.000000, -192.000000)">
		<path id="Oval_247_copy" class="st0" d="M-312.5,699c-0.8,0-1.5-0.1-2.2-0.3c-0.8,0.6-2.1,1.4-3.4,1.4c0.6-0.6,0.9-1.7,0.9-2.6
			c-1.1-0.9-1.8-2.1-1.8-3.5c0-2.8,2.9-5,6.5-5s6.5,2.2,6.5,5S-308.9,699-312.5,699z M-313.7,688.2c1.1-0.7,2.6-1.2,4.2-1.2
			c3.6,0,6.5,2.2,6.5,5c0,0.9-0.3,1.8-0.9,2.5c0,0.9,0,2.8,0.9,3.6c-1.3,0-2.6-0.8-3.4-1.4c0.8-0.9,1.3-2,1.3-3.2c0-3-3.1-5.5-7-5.5
			C-312.6,688-313.1,688.1-313.7,688.2z"/>
	</g>
</g>
</svg>
