<?xml version="1.0" encoding="utf-8"?>
<!-- Generator: Adobe Illustrator 19.0.0, SVG Export Plug-In . SVG Version: 6.00 Build 0)  -->
<svg version="1.1" id="Layer_1" xmlns="http://www.w3.org/2000/svg" xmlns:xlink="http://www.w3.org/1999/xlink" x="0px" y="0px"
	 viewBox="-743 245 512 512" style="enable-background:new -743 245 512 512;" xml:space="preserve">
<style type="text/css">
	.st0{fill:#BFA48A;}
</style>
<path class="st0" d="M-609,730.4h63.2V505.7L-609,569V730.4z M-696,656v74.4h63.3V592.7l-43.7,43.7L-696,656z M-522.1,730.3h63.3
	V556.7l-63.3-63.3V730.3L-522.1,730.3z M-435.1,564.1v166.3h63.3V500.8l-49.6,49.6L-435.1,564.1z M-348.1,730.4h63.2V413.8
	l-63.2,63.3V730.4z M-373.3,285.2l41.9,42l0.2,0.2l-112.2,112.2l-84.5-84.5L-743,570.4l44.7,44.7l170.5-170.5l84.5,84.5l156.9-156.9
	l41.7,41.7l13.6-142.3L-373.3,285.2z"/>
</svg>
