<?xml version="1.0" encoding="utf-8"?>
<!-- Generator: Adobe Illustrator 19.0.0, SVG Export Plug-In . SVG Version: 6.00 Build 0)  -->
<svg version="1.1" id="Layer_1" xmlns="http://www.w3.org/2000/svg" xmlns:xlink="http://www.w3.org/1999/xlink" x="0px" y="0px"
	 viewBox="-935 437 128 128" style="enable-background:new -935 437 128 128;" xml:space="preserve">
<style type="text/css">
	.st0{fill:#BFA48A;}
</style>
<path class="st0" d="M-823,487.2h-96c-0.8,0-1.5-0.5-1.8-1.2s-0.2-1.5,0.3-2.1l23-27.3c0.4-0.5,0.9-0.7,1.5-0.7h50
	c0.6,0,1.1,0.3,1.5,0.7l23,27.3c0.5,0.6,0.6,1.4,0.3,2.1S-822.2,487.2-823,487.2z M-914.7,483.2h87.4l-19.6-23.3H-895L-914.7,483.2z
	"/>
<polygon class="st0" points="-871,545.3 -920.5,486.5 -917.5,483.9 -871,539.1 -824.5,483.9 -821.5,486.5 "/>
<path class="st0" d="M-871,544.2L-871,544.2c-0.8,0-1.6-0.5-1.9-1.3l-20.1-57c-0.2-0.6-0.1-1.3,0.3-1.9l20.1-27.3c0.8-1,2.5-1,3.2,0
	l20.1,27.3c0.4,0.5,0.5,1.2,0.3,1.9l-20.1,57C-869.4,543.7-870.1,544.2-871,544.2z M-888.9,485.5l17.9,50.7l17.9-50.7l-17.9-24.3
	L-888.9,485.5z"/>
<rect x="-907.4" y="469.5" transform="matrix(-0.1759 -0.9844 0.9844 -0.1759 -1514.8893 -325.1178)" class="st0" width="27.7" height="4"/>
<rect x="-850.5" y="457.7" transform="matrix(-0.9844 -0.176 0.176 -0.9844 -1766.6515 786.3865)" class="st0" width="4" height="27.7"/>
</svg>
