<?xml version="1.0" encoding="utf-8"?>
<!-- Generator: Adobe Illustrator 19.0.0, SVG Export Plug-In . SVG Version: 6.00 Build 0)  -->
<svg version="1.1" id="Layer_1" xmlns="http://www.w3.org/2000/svg" xmlns:xlink="http://www.w3.org/1999/xlink" x="0px" y="0px"
	 viewBox="-743 245 512 512" style="enable-background:new -743 245 512 512;" xml:space="preserve">
<style type="text/css">
	.st0{fill:#BFA48A;}
</style>
<path class="st0" d="M-565.9,598.3c-3.3-3.6-4.9-8.3-4.8-14.3h-22.4c1,12.5,4.9,22,11.6,28.5c6.7,6.4,16,10.1,27.9,11V637h9.4v-13.5
	c7.9-0.6,14.5-2.1,19.6-4.8c5.1-2.7,9.2-5.7,12.2-9.1c3-3.4,5.1-6.9,6.3-10.4c1.1-3.5,1.8-6.5,1.8-8.9c0-2.6-0.2-5.7-0.6-9.1
	c-0.3-3.4-1.5-6.7-3.5-10.1c-2-3.4-5.2-6.7-9.4-9.8c-4.2-3.1-10.3-5.8-18.1-7.9c-1.5-0.5-2.9-0.8-4.2-1.1c-1.3-0.3-2.6-0.6-3.9-1
	v-28.1c3.6,0,6.7,1.5,9.2,4.5c2.6,2.9,3.9,6.6,4,10.8h22.6c-0.3-5.5-1.5-10.3-3.5-14.3c-2-4-4.6-7.4-7.8-10.2
	c-3.2-2.6-6.9-4.8-11.1-6.3c-4.2-1.6-8.7-2.6-13.4-3.1v-12.3h-9.4v12.3c-4.8,0.3-9.4,1.2-13.9,2.8c-4.4,1.5-8.4,3.7-11.8,6.5
	c-3.4,2.8-6.1,6.3-8.2,10.5c-2.1,4.1-3.1,8.9-3.1,14.3c0,5.3,0.9,9.7,2.7,13.2c1.8,3.5,4.2,6.6,7.3,8.9c3,2.4,6.5,4.3,10.3,5.7
	c3.8,1.5,7.7,2.7,11.6,3.7c1.1,0.2,2.1,0.5,3,0.7c0.9,0.3,1.6,0.5,2.1,0.7V605C-558.5,604-562.6,601.8-565.9,598.3 M-544.3,574.4
	c6.3,1.7,10.7,3.6,13.3,5.6c2.6,2.1,3.9,5.2,3.9,9.3c0,2.5-0.5,4.7-1.6,6.6c-1.1,1.8-2.4,3.4-4.1,4.7c-1.6,1.3-3.5,2.3-5.6,2.9
	c-2.1,0.7-4,1.1-6,1.3L-544.3,574.4L-544.3,574.4z M-564.7,544.5c-2.2-1.9-3.3-4.6-3.3-8.1c0-2.3,0.4-4.2,1.2-5.8
	c0.8-1.6,1.9-3.1,3.3-4.1c1.3-1.1,2.9-1.9,4.6-2.5c1.7-0.5,3.4-0.8,5.2-0.8v26C-558.8,548-562.4,546.4-564.7,544.5 M-618,329.7v30.2
	h353.8v186.9h33.2V329.7H-618z M-743,672.3h387V455.2h-387V672.3z M-549.5,476.3c37.4,0,67.6,38.6,67.6,86.2
	c0,47.6-30.3,86.2-67.6,86.2c-37.4,0-67.6-38.6-67.6-86.2C-617.1,514.9-586.9,476.3-549.5,476.3 M-680.7,422.6h353.8v186.9h33.2
	V392.4h-387V422.6z"/>
</svg>
