<?xml version="1.0" encoding="utf-8"?>
<!-- Generator: Adobe Illustrator 19.0.0, SVG Export Plug-In . SVG Version: 6.00 Build 0)  -->
<svg version="1.1" id="Слой_1" xmlns="http://www.w3.org/2000/svg" xmlns:xlink="http://www.w3.org/1999/xlink" x="0px" y="0px"
	 viewBox="-928 437 143 128" style="enable-background:new -928 437 143 128;" xml:space="preserve">
<style type="text/css">
	.st0{fill:#7C7C7C;}
	.st1{fill:none;}
</style>
<path class="st0" d="M-795.8,542.3l-36.1-36.3l36.2-36.1L-795.8,542.3L-795.8,542.3z M-913.1,549.1l36.4-36.4l8,7.9c3,3,6.6,5,11,5
	c4.4,0,8-2,11-5l8-7.9l36.4,36.4H-913.1L-913.1,549.1z M-802.1,462.3l-51.9,52.1c-1,1-1.9,1.6-3.7,1.6s-2.7-0.6-3.7-1.6l-51.9-52.1
	H-802.1L-802.1,462.3z M-919.6,469.9l36.2,36.1l-36.2,36.3V469.9L-919.6,469.9z"/>
<rect id="_x3C_Slice_x3E__100_" x="-928" y="437" class="st1" width="143" height="128"/>
</svg>
