<?xml version="1.0" encoding="utf-8"?>
<!-- Generator: Adobe Illustrator 19.0.0, SVG Export Plug-In . SVG Version: 6.00 Build 0)  -->
<svg version="1.1" id="Слой_1" xmlns="http://www.w3.org/2000/svg" xmlns:xlink="http://www.w3.org/1999/xlink" x="0px" y="0px"
	 viewBox="-924 440 150 122" style="enable-background:new -924 440 150 122;" xml:space="preserve">
<style type="text/css">
	.st0{fill:#BFA48A;}
	.st1{fill:none;}
</style>
<path class="st0" d="M-858.3,537.3c-29.2,0-52.5-17.3-63.6-43.4c11.2-26.1,34.5-43.4,63.6-43.4c29.1,0,52.5,17.3,63.7,43.4
	C-805.8,520-829.2,537.3-858.3,537.3L-858.3,537.3L-858.3,537.3z M-858.3,526.9c23.1,0,43-13.5,52.3-33c-9.3-19.5-29.2-33-52.3-33
	c-23,0-42.9,13.5-52.2,33C-901.3,513.4-881.4,526.9-858.3,526.9L-858.3,526.9L-858.3,526.9z M-882.5,493.9
	c0-13.4,10.8-24.2,24.1-24.2c13.4,0,24.2,10.9,24.2,24.2c0,13.4-10.9,24.2-24.2,24.2C-871.7,518.1-882.5,507.2-882.5,493.9
	L-882.5,493.9L-882.5,493.9z M-856.9,487.8c0,4.2,3.3,7.6,7.6,7.6c4.1,0,7.5-3.4,7.5-7.6c0-4.1-3.3-7.5-7.5-7.5
	S-856.9,483.6-856.9,487.8L-856.9,487.8L-856.9,487.8z"/>
<rect id="_x3C_Slice_x3E__100_" x="-924" y="440" class="st1" width="150" height="122"/>
</svg>
