<?xml version="1.0" encoding="utf-8"?>
<!-- Generator: Adobe Illustrator 19.0.0, SVG Export Plug-In . SVG Version: 6.00 Build 0)  -->
<svg version="1.1" id="Layer_1" xmlns="http://www.w3.org/2000/svg" xmlns:xlink="http://www.w3.org/1999/xlink" x="0px" y="0px"
	 viewBox="-971 472.3 56.7 56.7" style="enable-background:new -971 472.3 56.7 56.7;" xml:space="preserve">
<style type="text/css">
	.st0{fill:#BFA48A;}
</style>
<g>
	<path class="st0" d="M-951.3,498.1c0,1.8,0,3.6,0,5.4c3,0.1,6,0.1,9,0.1c-1.3,6.7-10.4,8.8-15.2,4.5c-4.9-3.8-4.7-12.2,0.4-15.7
		c3.6-2.9,8.7-2.2,12.3,0.3c1.4-1.3,2.7-2.7,4-4.1c-3-2.4-6.6-4.1-10.5-3.9c-8.1-0.3-15.6,6.8-15.7,15c-0.5,6.6,3.9,13.2,10,15.5
		c6.1,2.4,14,0.8,18-4.8c2.6-3.5,3.1-8,2.8-12.2C-941.3,498.1-946.3,498.1-951.3,498.1z"/>
	<path class="st0" d="M-921.9,498.1c0-1.5,0-3,0-4.5c-1.5,0-3,0-4.5,0c0,1.5,0,3,0,4.5c-1.5,0-3,0-4.5,0c0,1.5,0,3,0,4.5
		c1.5,0,3,0,4.5,0c0,1.5,0,3,0,4.5c1.5,0,3,0,4.5,0c0-1.5,0-3,0-4.5c1.5,0,3,0,4.5,0c0-1.5,0-3,0-4.5
		C-918.9,498.1-920.4,498.1-921.9,498.1z"/>
</g>
</svg>
