<?xml version="1.0" encoding="utf-8"?>
<!-- Generator: Adobe Illustrator 19.0.0, SVG Export Plug-In . SVG Version: 6.00 Build 0)  -->
<svg version="1.1" id="Слой_1" xmlns:sketch="http://www.bohemiancoding.com/sketch/ns"
	 xmlns="http://www.w3.org/2000/svg" xmlns:xlink="http://www.w3.org/1999/xlink" x="0px" y="0px" viewBox="-969 471 60 60"
	 style="enable-background:new -969 471 60 60;" xml:space="preserve">
<style type="text/css">
	.st0{fill:#BFA48A;}
</style>
<title></title>
<desc></desc>
<g id="black">
	<g id="slice" transform="translate(-600.000000, 0.000000)">
	</g>
	<g id="linkedin" transform="translate(16.000000, 17.000000)">
		<path class="st0" d="M-963.1,497.8v-18.3h-5.7v18.3H-963.1z M-963.1,473c0-1.6-1.1-2.9-2.9-2.9c-1.8,0-2.9,1.2-2.9,2.9
			c0,1.6,1.1,2.9,2.9,2.9h0C-964.2,475.9-963.1,474.6-963.1,473z M-953.9,497.8v-10.4c0-0.6,0-1.1,0.2-1.5c0.4-1.1,1.5-2.3,3.2-2.3
			c2.2,0,3.7,1.3,3.7,3.8v10.4h5.7v-10.7c0-5.7-3.1-8.4-7.1-8.4c-3.3,0-4.8,1.9-5.6,3.1l0-2.4h-5.7c0.1,1.8,0,18.4,0,18.4H-953.9z"
			/>
	</g>
</g>
</svg>
