<?xml version="1.0" encoding="utf-8"?>
<!-- Generator: Adobe Illustrator 19.0.0, SVG Export Plug-In . SVG Version: 6.00 Build 0)  -->
<svg version="1.1" id="Layer_1" xmlns="http://www.w3.org/2000/svg" xmlns:xlink="http://www.w3.org/1999/xlink" x="0px" y="0px"
	 viewBox="-749 251 500 500" style="enable-background:new -749 251 500 500;" xml:space="preserve">
<style type="text/css">
	.st0{fill:#BFA48A;}
</style>
<path class="st0" d="M-617.1,401.1v63.6h-27.3c-20.1,0-36.3,16.3-36.3,36.3v181.7c0,20.1,16.3,36.3,36.3,36.3h290.7
	c20.1,0,36.3-16.3,36.3-36.3V501c0-20.1-16.3-36.3-36.3-36.3h-27.3v-63.6c0-65.2-52.9-118.1-118.1-118.1S-617.1,335.8-617.1,401.1z
	 M-571.7,464.7v-63.6c0-40.2,32.5-72.7,72.7-72.7s72.7,32.5,72.7,72.7v63.6H-571.7z M-535.3,564.6c0-20.1,16.3-36.3,36.3-36.3
	s36.3,16.3,36.3,36.3c0,12.8-6.6,24.1-16.6,30.5c0,0,3.5,21.4,7.5,46.7c0,7.5-6.1,13.6-13.6,13.6h-27.3c-7.5,0-13.6-6.1-13.6-13.6
	l7.5-46.7C-528.7,588.7-535.3,577.4-535.3,564.6z"/>
</svg>
