<?xml version="1.0" encoding="utf-8"?>
<!-- Generator: Adobe Illustrator 19.0.0, SVG Export Plug-In . SVG Version: 6.00 Build 0)  -->
<svg version="1.1" id="Слой_1" xmlns="http://www.w3.org/2000/svg" xmlns:xlink="http://www.w3.org/1999/xlink" x="0px" y="0px"
	 viewBox="0 0 1162.6 479.8" style="enable-background:new 0 0 1162.6 479.8;" xml:space="preserve">
<style type="text/css">
	.st0{fill:#C0A58A;}
	.st1{fill:url(#XMLID_156_);}
	.st2{fill:url(#XMLID_157_);}
	.st3{fill:url(#XMLID_158_);}
	.st4{fill:url(#XMLID_159_);}
	.st5{fill:url(#XMLID_160_);}
	.st6{fill:url(#XMLID_161_);}
</style>
<g id="XMLID_6_">
	<path id="XMLID_28_" class="st0" d="M490.8,295.5h-51.6v-4.5h16.4l-17.6-48.6h-55.4l-17.6,48.6h16.4v4.5h-38v-4.5h9.3
		c2.3,0,3.9-1.2,4.8-3.5l55.4-150.5h8.6l55.4,150.5c0.8,2.4,2.4,3.5,4.8,3.5h9.3V295.5z M410.5,166.6l-25.2,68.7h50.1L410.5,166.6z"
		/>
</g>
<g id="XMLID_18_">
	<path id="XMLID_33_" class="st0" d="M387,432.8c-4.6-5-6.9-11.9-6.9-20.7c0-8.8,2.3-15.7,6.9-20.7c4.6-5,10.5-7.5,17.9-7.5
		c7.3,0,13.3,2.5,17.9,7.5c4.6,5,6.9,11.9,6.9,20.7c0,8.8-2.3,15.7-6.9,20.7c-4.6,5-10.5,7.5-17.9,7.5
		C397.5,440.3,391.5,437.8,387,432.8z M392.4,393c-3.3,4.7-5,11-5,19s1.7,14.3,5,19c3.3,4.7,7.4,7,12.4,7c5,0,9.1-2.3,12.4-7
		c3.3-4.7,5-11,5-19s-1.7-14.4-5-19c-3.3-4.7-7.5-7-12.4-7C399.8,386,395.7,388.4,392.4,393z"/>
</g>
<g id="XMLID_2_">
	<path id="XMLID_31_" class="st0" d="M364.3,439.3l-0.1-1.2c-0.1-1.2-0.5-1.8-1.4-1.8c-0.5,0-1.3,0.3-2.5,1
		c-3.7,2.1-7.5,3.1-11.3,3.1c-7.3,0-13.2-2.5-17.9-7.5c-4.6-5-7-11.9-7-20.7c0-8.8,2.3-15.7,6.9-20.7c4.6-5,10.6-7.6,17.9-7.6
		c3.7,0,7.5,1,11.2,2.9c1.2,0.6,2.1,1,2.6,1c0.9,0,1.3-0.6,1.4-1.8l0.1-1.5h1.6v15h-1.6c-0.5-4.4-2.2-7.7-5-9.8
		c-2.8-2.1-6.3-3.2-10.4-3.2c-5.2,0-9.5,2.3-12.7,6.9c-3.2,4.6-4.8,10.9-4.8,18.9c0,8,1.6,14.3,4.8,18.8c3.2,4.6,7.4,6.8,12.6,6.8
		c4.1,0,7.6-1.1,10.4-3.2c2.8-2.1,4.5-5.4,5-9.8h1.6v14.4H364.3z"/>
</g>
<g id="XMLID_8_">
	<path id="XMLID_36_" class="st0" d="M483.3,439.3l-32.5-48.2v45.5c0,0.8,0.4,1.2,1.2,1.2h4.1v1.6h-13.5v-1.6h4.1
		c0.8,0,1.2-0.4,1.2-1.2v-49.1c0-0.7-0.4-1-1.2-1h-4.1v-1.6h12.7l27.8,41.1v-38.4c0-0.8-0.4-1.2-1.2-1.2h-4.1v-1.6h13.5v1.6h-4.1
		c-0.8,0-1.2,0.3-1.2,1v51.9H483.3z"/>
</g>
<g id="XMLID_10_">
	<path id="XMLID_40_" class="st0" d="M518.7,440.3c-3.8,0-7.6-1-11.4-3.1c-1.3-0.6-2.1-1-2.6-1c-0.9,0-1.3,0.6-1.4,1.8l-0.1,1.2
		h-1.6v-14.4h1.6c0.5,4.4,2.2,7.7,5,9.8c2.8,2.1,6.1,3.2,9.9,3.2c3.8,0,6.7-1,8.7-3.1c2-2.1,3-4.5,3-7.3c0-4.5-2.6-7.9-7.8-10.2
		l-10.3-4.6c-3.1-1.4-5.4-3.3-7-5.7c-1.6-2.4-2.3-5-2.3-7.7c0-4.2,1.4-7.8,4.2-10.8c2.8-3,6.9-4.5,12.2-4.5c3.1,0,6.3,1,9.6,3.1
		c1.1,0.6,1.8,1,2.2,1c0.7,0,1.2-0.6,1.2-1.8l0.1-1.7h1.6v15h-1.6c-0.5-4.4-1.9-7.7-4.3-9.8c-2.4-2.1-5.3-3.2-8.7-3.2
		c-3.4,0-6.1,0.9-8,2.8c-1.9,1.9-2.8,4-2.8,6.4s0.6,4.5,1.9,6.4c1.3,1.9,3.2,3.4,5.7,4.5l10.4,4.6c3.5,1.6,6.1,3.6,7.8,6.1
		c1.8,2.5,2.6,5.2,2.6,8.1c0,4.1-1.6,7.6-4.9,10.6C528.6,438.8,524.2,440.3,518.7,440.3z"/>
</g>
<g id="XMLID_9_">
	<path id="XMLID_38_" class="st0" d="M597.8,384.8v1.6h-4.1c-0.8,0-1.2,0.3-1.2,1v35c0,6-1.7,10.5-5.2,13.4c-3.5,3-8.1,4.5-13.9,4.5
		c-5.8,0-10.5-1.5-13.9-4.5c-3.5-3-5.2-7.4-5.2-13.4v-35c0-0.7-0.4-1-1.2-1H549v-1.6h17.6v1.6h-4.1c-0.8,0-1.2,0.3-1.2,1V423
		c0,4.8,1.2,8.4,3.6,10.8c2.4,2.3,5.6,3.5,9.8,3.5c4.1,0,7.6-1.2,10.5-3.5c2.9-2.3,4.3-6.1,4.3-11.4v-35c0-0.7-0.4-1-1.2-1h-4.1
		v-1.6H597.8z"/>
</g>
<g id="XMLID_17_">
	<path id="XMLID_42_" class="st0" d="M607.3,439.3v-1.6h4.1c0.8,0,1.2-0.4,1.2-1.2v-49.1c0-0.7-0.4-1-1.2-1h-4.1v-1.6h17.6v1.6h-4.1
		c-0.8,0-1.2,0.3-1.2,1v49.4h17.2c1.5,0,2.3-0.6,2.4-1.9l1.3-10.1h2v4.1c0,5.1,0.3,8.8,0.8,11.2c-1.8-0.5-5-0.8-9.6-0.8H607.3z"/>
</g>
<g id="XMLID_11_">
	<path id="XMLID_44_" class="st0" d="M671.8,387.2v49.4c0,0.7,0.4,1,1.2,1h7.5v1.6h-24.6v-1.6h7.5c0.8,0,1.2-0.3,1.2-1v-49.4h-11.2
		c-1.5,0-2.3,0.6-2.4,1.9l-1.3,10.1h-2v-4.1c0-5.1-0.3-8.8-0.8-11.2c1.8,0.5,5,0.8,9.6,0.8h23.2c4.6,0,7.8-0.3,9.6-0.8
		c-0.5,2.4-0.8,6.1-0.8,11.2v4.1h-2l-1.3-10.1c-0.1-1.3-0.9-1.9-2.4-1.9H671.8z"/>
</g>
<g id="XMLID_12_">
	<path id="XMLID_46_" class="st0" d="M706.6,436.5v-49.1c0-0.7-0.4-1-1.2-1h-4.1v-1.6h17.6v1.6h-4.1c-0.8,0-1.2,0.3-1.2,1v49.1
		c0,0.8,0.4,1.2,1.2,1.2h4.1v1.6h-17.6v-1.6h4.1C706.2,437.7,706.6,437.3,706.6,436.5z"/>
</g>
<g id="XMLID_13_">
	<path id="XMLID_48_" class="st0" d="M770.6,439.3l-32.5-48.2v45.5c0,0.8,0.4,1.2,1.2,1.2h4.1v1.6h-13.5v-1.6h4.1
		c0.8,0,1.2-0.4,1.2-1.2v-49.1c0-0.7-0.4-1-1.2-1h-4.1v-1.6h12.7l27.8,41.1v-38.4c0-0.8-0.4-1.2-1.2-1.2h-4.1v-1.6h13.5v1.6h-4.1
		c-0.8,0-1.2,0.3-1.2,1v51.9H770.6z"/>
</g>
<g id="XMLID_14_">
	<path id="XMLID_50_" class="st0" d="M817.3,386.3c-5.2,0-9.5,2.3-12.7,6.9c-3.2,4.6-4.8,10.9-4.8,18.9c0,8,1.6,14.3,4.8,18.8
		c3.2,4.6,7.3,6.8,12.1,6.8s8.3-1.3,10.2-3.8c1.9-2.5,2.9-6.2,2.9-11v-3.5c0-0.7-0.4-1-1.2-1h-5.8V417h17.6v1.6h-2.3
		c-0.8,0-1.2,0.3-1.2,1v3.1c0,5.1-1.8,9.4-5.5,12.7c-3.7,3.3-8.4,5-14.2,5c-7.3,0-13.2-2.5-17.9-7.5c-4.6-5-7-11.9-7-20.7
		c0-8.8,2.3-15.7,6.9-20.7c4.6-5,10.6-7.6,17.9-7.6c3.7,0,7.5,1,11.2,2.9c1.2,0.6,2.1,1,2.6,1c0.9,0,1.3-0.6,1.4-1.8l0.1-1.5h1.6v15
		h-1.6c-0.5-4.4-2.2-7.7-5-9.8C824.9,387.3,821.5,386.3,817.3,386.3z"/>
</g>
<g id="XMLID_7_">
	<path id="XMLID_25_" class="st0" d="M524.7,141.5v-4.5h61.4c14.3,0,26.3,4.3,36.1,13c9.8,8.6,14.7,20.3,14.7,34.9
		s-4.9,26.2-14.7,34.9c-9.8,8.6-21.9,13-36.1,13h-25.4v54.9c0,2.4,1.2,3.5,3.5,3.5H581v4.5h-56.4v-4.5h11.8c2.3,0,3.5-1.2,3.5-3.5
		V144.5c0-2-1.2-3-3.5-3H524.7z M584.8,144h-24.2v81.5h24.2c9.9,0,17.7-4.1,23.4-12.2c5.7-8.1,8.6-17.7,8.6-28.6
		c0-10.9-2.9-20.4-8.6-28.6C602.5,148,594.7,144,584.8,144z"/>
</g>
<g id="XMLID_4_">
	<path id="XMLID_5_" class="st0" d="M814.6,136.9v4.5h-11.8c-2.4,0-3.5,1-3.5,3v101.9c0,17.4-5,30.5-15.1,39.1
		c-10.1,8.6-23.6,13-40.5,13c-16.9,0-30.4-4.3-40.5-13c-10.1-8.6-15.1-21.7-15.1-39.1V144.5c0-2-1.2-3-3.5-3h-11.8v-4.5H724v4.5
		h-11.8c-2.4,0-3.5,1-3.5,3v103.7c0,14.1,3.5,24.5,10.4,31.3c7,6.8,16.4,10.2,28.4,10.2c12,0,22.2-3.4,30.6-10.2
		c8.4-6.8,12.6-17.8,12.6-33.1V144.5c0-2-1.2-3-3.5-3h-11.8v-4.5H814.6z"/>
</g>
<linearGradient id="XMLID_156_" gradientUnits="userSpaceOnUse" x1="227.3226" y1="129.2961" x2="-100.1869" y2="486.9445" gradientTransform="matrix(-1 0 0 1 903.1555 0)">
	<stop  offset="0" style="stop-color:#BFA58A"/>
	<stop  offset="1" style="stop-color:#BFA58A;stop-opacity:0"/>
</linearGradient>
<rect id="XMLID_135_" x="580.5" y="340.7" class="st1" width="582" height="4.6"/>
<linearGradient id="XMLID_157_" gradientUnits="userSpaceOnUse" x1="-1381.1785" y1="129.6457" x2="-1708.688" y2="487.2941" gradientTransform="matrix(1 0 0 1 1866.8029 0)">
	<stop  offset="0" style="stop-color:#BFA58A"/>
	<stop  offset="1" style="stop-color:#BFA58A;stop-opacity:0"/>
</linearGradient>
<rect id="XMLID_134_" x="-0.1" y="340.7" class="st2" width="580.6" height="4.6"/>
<linearGradient id="XMLID_158_" gradientUnits="userSpaceOnUse" x1="227.2386" y1="263.7713" x2="-100.2709" y2="621.4197" gradientTransform="matrix(-1 0 0 1 903.1555 0)">
	<stop  offset="0" style="stop-color:#BFA58A"/>
	<stop  offset="1" style="stop-color:#BFA58A;stop-opacity:0"/>
</linearGradient>
<rect id="XMLID_20_" x="580.6" y="475.2" class="st3" width="582" height="4.6"/>
<linearGradient id="XMLID_159_" gradientUnits="userSpaceOnUse" x1="-1381.0945" y1="264.1209" x2="-1708.604" y2="621.7693" gradientTransform="matrix(1 0 0 1 1866.8029 0)">
	<stop  offset="0" style="stop-color:#BFA58A"/>
	<stop  offset="1" style="stop-color:#BFA58A;stop-opacity:0"/>
</linearGradient>
<rect id="XMLID_19_" x="0" y="475.2" class="st4" width="580.6" height="4.6"/>
<linearGradient id="XMLID_160_" gradientUnits="userSpaceOnUse" x1="141.3165" y1="153.7244" x2="579.6193" y2="153.7244">
	<stop  offset="0" style="stop-color:#BFA58A;stop-opacity:0"/>
	<stop  offset="0.6892" style="stop-color:#BFA58A"/>
</linearGradient>
<path id="XMLID_23_" class="st5" d="M148.3,307.4h-7c0-41.7,11.7-82.1,34.6-120.2c22.1-36.6,53.8-69.5,94.1-97.7
	C352.7,31.8,462.7,0,579.6,0v7c-115.5,0-224,31.4-305.5,88.3c-39.5,27.6-70.5,59.8-92.1,95.5C159.6,227.8,148.3,267,148.3,307.4z"/>
<linearGradient id="XMLID_161_" gradientUnits="userSpaceOnUse" x1="-101.3898" y1="153.7244" x2="336.9129" y2="153.7244" gradientTransform="matrix(-1 0 0 1 916.5322 0)">
	<stop  offset="0" style="stop-color:#BFA58A;stop-opacity:0"/>
	<stop  offset="0.6892" style="stop-color:#BFA58A"/>
</linearGradient>
<path id="XMLID_22_" class="st6" d="M1010.9,307.4h7c0-41.7-11.7-82.1-34.6-120.2c-22.1-36.6-53.8-69.5-94.1-97.7
	C806.5,31.8,696.6,0,579.6,0v7c115.5,0,224,31.4,305.5,88.3c39.5,27.6,70.5,59.8,92.1,95.5C999.6,227.8,1010.9,267,1010.9,307.4z"/>
</svg>
