<?xml version="1.0" encoding="utf-8"?>
<!-- Generator: Adobe Illustrator 19.0.0, SVG Export Plug-In . SVG Version: 6.00 Build 0)  -->
<svg version="1.1" id="Layer_1" xmlns="http://www.w3.org/2000/svg" xmlns:xlink="http://www.w3.org/1999/xlink" x="0px" y="0px"
	 viewBox="-899 401 200 200" style="enable-background:new -899 401 200 200;" xml:space="preserve">
<style type="text/css">
	.st0{fill:#BFA48A;}
</style>
<g>
	<path class="st0" d="M-743.2,513.7c-0.4-1.8-1.4-3.6-3.1-5c-1.6-1.4-3.6-2.2-5.7-2.6l-33.1-6.4l9.6,6.3l-15.1,47.3l-8.5-35.2
		l-8.5,35.2l-15.1-47.3l9.6-6.3l-33.1,6.4c-2.1,0.3-4,1.2-5.7,2.6c-1.6,1.4-2.6,3.2-3.1,5l-9.8,43l18.5,6.4
		c6.1,6.4,23.3,11.1,43.9,11.5h3.2h3.2c20.6-0.4,37.8-5.1,43.9-11.5l18.5-6.4L-743.2,513.7z"/>
	<polygon class="st0" points="-799,504.6 -806.6,507.3 -799,518.3 -791.4,507.3 	"/>
	<path class="st0" d="M-770.7,462.2c0-19.5-8-34.8-28.3-34.8c-20.3,0-28.3,15.3-28.3,34.8c-2.1,1.1-3.5,3.7-1.4,9.3
		c1,2.8,2.9,5.1,4.5,6.4c5.8,14.4,17.1,25.5,25.2,25.5s19.5-11.1,25.2-25.5c1.6-1.2,3.4-3.6,4.5-6.4
		C-767.2,465.9-768.6,463.3-770.7,462.2z"/>
	<path class="st0" d="M-867,546.9c-9.4-1.1-16.9-3.7-20-6.9l-12-4.2l6.4-27.9c0.3-1.2,0.9-2.3,2-3.2c1.1-0.9,2.3-1.5,3.7-1.7
		l23.2-5.3c-3.5-3-6.9-7.7-9.1-13.1c-1-0.8-2.2-2.3-2.9-4.1c-1.4-3.6-0.4-5.3,0.9-6c0-12.7,5.2-22.6,18.3-22.6h0
		c13.1,0,18.3,9.9,18.3,22.6c1.4,0.7,2.3,2.4,0.9,6c-0.7,1.8-1.9,3.3-2.9,4.1c-2.2,5.4-5.6,10.1-9.1,13.1l10.3,2.4l-8,1.5
		c-3,0.5-5.7,1.7-7.9,3.6c-2.3,2-3.9,4.6-4.5,7.4L-867,546.9z M-705.4,508c-0.3-1.2-0.9-2.3-2-3.2c-1.1-0.9-2.3-1.5-3.7-1.7
		l-23.2-5.3c3.5-3,6.9-7.7,9.1-13.1c1-0.8,2.2-2.3,2.9-4.1c1.4-3.6,0.4-5.3-0.9-6c0-12.7-5.2-22.6-18.3-22.6l0,0
		c-13.1,0-18.3,9.9-18.3,22.6c-1.4,0.7-2.3,2.4-0.9,6c0.7,1.8,1.9,3.3,2.9,4.1c2.2,5.4,5.6,10.1,9.1,13.1l-10.3,2.4l8,1.5
		c2.9,0.5,5.7,1.7,7.9,3.6c2.3,2,3.9,4.6,4.5,7.4l7.8,34.2c9.4-1.1,16.9-3.7,20-6.9l12-4.2L-705.4,508z"/>
</g>
</svg>
