<?xml version="1.0" encoding="utf-8"?>
<!-- Generator: Adobe Illustrator 19.0.0, SVG Export Plug-In . SVG Version: 6.00 Build 0)  -->
<svg version="1.1" id="Layer_1" xmlns="http://www.w3.org/2000/svg" xmlns:xlink="http://www.w3.org/1999/xlink" x="0px" y="0px"
	 viewBox="-979 481 40 40" style="enable-background:new -979 481 40 40;" xml:space="preserve">
<style type="text/css">
	.st0{fill:#7C7C7C;}
</style>
<g>
	<g>
		<g>
			<g>
				<path class="st0" d="M-959,483c9.9,0,18,8.1,18,18s-8.1,18-18,18s-18-8.1-18-18S-968.9,483-959,483 M-959,481c-11,0-20,9-20,20
					c0,11,9,20,20,20c11,0,20-9,20-20C-939,490-948,481-959,481L-959,481z"/>
			</g>
		</g>
	</g>
	<path class="st0" d="M-964.6,490.8c1.2-0.2,2,1.1,2.6,2.1c0.6,0.9,1.3,2,1,3.2c-0.2,0.7-0.8,1-1.2,1.4c-0.4,0.4-1.1,0.7-1.3,1.3
		c-0.3,1,0.3,2,0.7,2.6c0.8,1.3,1.8,2.5,3.1,3.5c0.6,0.5,1.5,1.2,2.4,1c1.3-0.3,1.6-1.9,3-2.1c1.3-0.2,2.2,0.8,3,1.4
		c0.7,0.6,1.9,1.4,1.8,2.5c0,0.6-0.5,1-1,1.4c-0.4,0.4-0.8,0.8-1.3,1.1c-1.1,0.7-2.3,1-3.8,1c-1.5,0-2.6-0.5-3.7-1.1
		c-2.1-1.1-3.7-2.6-5.2-4.3c-1.5-1.7-2.9-3.7-3.7-5.9c-1-2.8-0.5-5.6,1.1-7.4c0.3-0.3,0.7-0.6,1.1-0.9
		C-965.5,491.3-965.2,490.9-964.6,490.8z"/>
</g>
</svg>
