<?xml version="1.0" encoding="utf-8"?>
<!-- Generator: Adobe Illustrator 19.0.0, SVG Export Plug-In . SVG Version: 6.00 Build 0)  -->
<svg version="1.1" id="Слой_1" xmlns="http://www.w3.org/2000/svg" xmlns:xlink="http://www.w3.org/1999/xlink" x="0px" y="0px"
	 viewBox="-946 424 106 154" style="enable-background:new -946 424 106 154;" xml:space="preserve">
<style type="text/css">
	.st0{fill:#BFA48A;}
	.st1{fill:none;}
</style>
<path class="st0" d="M-919.9,486.7c7.7,0,9.4-6.2,5.5-10.7c-6.5-7.4-3-18.4,8.8-18.9c10.8-0.5,16.4,6.4,12.9,13.7
	c-4.4,9.3-1.7,11.6,1.8,14.1c1.6,1.2,3.4,1.6,5.1,1.8h11.3v24.2c0.9,6.2,6.4,7.4,10.6,3.7c7.4-6.5,18.4-3,18.9,8.8
	c0.4,10.9-6.4,16.4-13.7,12.9c-9.3-4.4-11.6-1.6-14.1,1.8c-0.9,1.4-1.4,2.8-1.7,4.2v21.9c0,0-13.1,0.1-13.9,0
	c-1.7-0.1-3.5-0.6-5.1-1.8c-3.5-2.4-6.2-4.8-1.8-14.1c3.5-7.4-2-14.2-12.9-13.7c-11.8,0.5-15.3,11.6-8.8,18.9
	c4,4.5,2.2,10.7-5.5,10.7h-15.9v-77.5H-919.9L-919.9,486.7L-919.9,486.7z"/>
<rect id="_x3C_Slice_x3E__100_" x="-946" y="424" class="st1" width="106" height="154"/>
</svg>
