<?xml version="1.0" encoding="utf-8"?>
<!-- Generator: Adobe Illustrator 19.0.0, SVG Export Plug-In . SVG Version: 6.00 Build 0)  -->
<svg version="1.1" id="Layer_1" xmlns="http://www.w3.org/2000/svg" xmlns:xlink="http://www.w3.org/1999/xlink" x="0px" y="0px"
	 viewBox="-987 489 24 24" style="enable-background:new -987 489 24 24;" xml:space="preserve">
<style type="text/css">
	.st0{fill:#BFA48A;}
</style>
<g>
	<g>
		<path class="st0" d="M-977.6,498.2c0,0-3.2,0.4-5.3,0.6c-0.2,0-0.4,0.1-0.4,0.3c-0.1,0.2,0,0.4,0.1,0.5c1.6,1.4,3.9,3.6,3.9,3.6
			c0,0-0.6,3.1-1.1,5.2c0,0.2,0,0.4,0.2,0.5c0.2,0.1,0.4,0.1,0.5,0c1.8-1,4.6-2.6,4.6-2.6s2.8,1.6,4.6,2.6c0.2,0.1,0.4,0.1,0.5,0
			c0.2-0.1,0.2-0.3,0.2-0.5c-0.4-2.1-1.1-5.2-1.1-5.2s2.4-2.1,3.9-3.6c0.1-0.1,0.2-0.3,0.1-0.5c-0.1-0.2-0.2-0.3-0.4-0.3
			c-2.1-0.2-5.3-0.6-5.3-0.6s-1.3-2.9-2.2-4.8c-0.1-0.2-0.3-0.3-0.5-0.3c-0.2,0-0.4,0.1-0.5,0.3
			C-976.3,495.3-977.6,498.2-977.6,498.2z"/>
	</g>
</g>
</svg>
